<svg width="32" height="38" viewBox="0 0 425 512" fill="none" xmlns="http://www.w3.org/2000/svg">
<path d="M65.6467 65.6551L65.6468 65.655C146.52 -15.2183 277.638 -15.2184 358.516 65.6551C439.373 146.512 439.373 277.646 358.515 358.512C358.515 358.512 358.515 358.512 358.515 358.512L212.078 504.929L65.6469 358.513C65.6468 358.513 65.6467 358.513 65.6466 358.513C-15.2157 277.646 -15.2154 146.513 65.6467 65.6551Z" fill="#334155" stroke="white" stroke-width="25"/>
<path d="M270.603 152.16C270.603 120.039 244.565 94 212.447 94C180.322 94 154.283 120.039 154.283 152.16C154.283 184.289 180.321 210.32 212.447 210.32C244.564 210.32 270.603 184.289 270.603 152.16Z" fill="#FBB829"/>
<path d="M212.448 232.185C166.36 232.185 129 269.549 129 315.633H295.892C295.892 269.549 258.528 232.185 212.448 232.185Z" fill="#FBB829"/>
</svg>
