<?xml version="1.0" standalone="no"?>
<!DOCTYPE svg PUBLIC "-//W3C//DTD SVG 20010904//EN"
 "http://www.w3.org/TR/2001/REC-SVG-20010904/DTD/svg10.dtd">
<svg version="1.0" xmlns="http://www.w3.org/2000/svg"
 width="1025.000000pt" height="1025.000000pt" viewBox="0 0 1025.000000 1025.000000"
 preserveAspectRatio="xMidYMid meet">
<metadata>
Created by potrace 1.14, written by Peter Selinger 2001-2017
</metadata>
<g transform="translate(0.000000,1025.000000) scale(0.100000,-0.100000)"
fill="#000000" stroke="none">
<path d="M501 10235 c-110 -24 -225 -89 -311 -175 -88 -88 -138 -176 -169
-295 l-21 -80 1 -4560 c1 -5061 -6 -4621 71 -4775 68 -136 220 -271 350 -311
128 -40 -63 -38 4703 -38 5050 -1 4614 -7 4762 65 175 84 303 244 347 434 14
58 15 587 15 4625 1 4050 -1 4567 -15 4625 -42 183 -170 346 -334 428 -153 77
285 70 -4775 70 -3850 0 -4570 -2 -4624 -13z"/>
</g>
</svg>
