<?xml version="1.0" standalone="no"?>
<!DOCTYPE svg PUBLIC "-//W3C//DTD SVG 20010904//EN"
 "http://www.w3.org/TR/2001/REC-SVG-20010904/DTD/svg10.dtd">
<svg version="1.0" xmlns="http://www.w3.org/2000/svg"
 width="1025.000000pt" height="1025.000000pt" viewBox="0 0 1025.000000 1025.000000"
 preserveAspectRatio="xMidYMid meet">
<metadata>
Created by potrace 1.14, written by Peter Selinger 2001-2017
</metadata>
<g transform="translate(0.000000,1025.000000) scale(0.100000,-0.100000)"
fill="#000000" stroke="none">
<path d="M7320 9193 c-340 -33 -684 -189 -928 -418 -242 -228 -390 -486 -469
-815 -37 -155 -44 -436 -15 -605 61 -353 256 -704 516 -926 213 -182 446 -298
728 -361 90 -20 130 -23 318 -23 231 0 316 12 498 71 254 83 530 266 699 466
180 213 292 440 355 720 20 91 23 129 23 318 -1 184 -4 230 -23 317 -67 307
-212 575 -432 793 -214 213 -449 348 -732 421 -158 40 -382 58 -538 42z m322
-508 c232 -40 410 -130 580 -293 173 -166 281 -371 318 -604 20 -125 8 -343
-24 -452 -60 -201 -147 -350 -280 -481 -143 -142 -306 -235 -502 -286 -79 -21
-110 -24 -274 -23 -172 0 -191 2 -274 27 -203 63 -349 148 -482 281 -372 372
-423 947 -123 1381 54 79 195 221 270 272 225 155 531 224 791 178z"/>
<path d="M4072 5960 c-173 -46 -343 -174 -429 -325 -22 -38 -530 -976 -1128
-2082 l-1089 -2013 -167 0 c-224 0 -284 -22 -346 -128 -39 -65 -40 -165 -2
-237 28 -56 91 -109 147 -125 25 -7 1325 -10 4078 -10 3519 0 4047 2 4083 15
61 21 104 58 137 117 68 124 16 280 -115 345 -29 15 -70 19 -216 23 l-179 5
-603 1235 c-331 679 -686 1406 -789 1615 l-186 380 -91 90 c-74 73 -109 99
-177 132 -116 56 -215 77 -344 71 -186 -9 -344 -84 -475 -224 -68 -72 -80 -94
-230 -399 -87 -177 -171 -351 -187 -385 -24 -54 -29 -60 -40 -45 -7 9 -211
384 -454 834 -242 449 -461 843 -486 874 -161 206 -456 304 -712 237z m253
-499 c22 -10 50 -29 61 -42 12 -13 258 -463 548 -1000 l526 -975 -463 -950
-464 -949 -1266 -3 c-697 -1 -1267 -1 -1267 1 0 13 2087 3857 2104 3876 29 33
94 61 141 61 22 0 58 -9 80 -19z m2452 -912 c23 -11 52 -34 63 -50 12 -15 342
-687 735 -1491 l714 -1463 -800 -3 c-439 -1 -1158 -1 -1597 0 l-798 3 405 830
c223 457 545 1116 715 1465 320 658 344 700 411 719 52 16 107 12 152 -10z"/>
</g>
</svg>
